<?xml version="1.0" encoding="utf-8"?>
<!-- Generator: Adobe Illustrator 24.3.0, SVG Export Plug-In . SVG Version: 6.00 Build 0)  -->
<svg version="1.1" id="Capa_1" xmlns="http://www.w3.org/2000/svg" xmlns:xlink="http://www.w3.org/1999/xlink" x="0px" y="0px"
	 viewBox="0 0 150 100" style="enable-background:new 0 0 150 100;" xml:space="preserve">
<style type="text/css">
	.st0{fill:#121629;}
</style>
<g>
	<g>
		<g>
			<path class="st0" d="M3.97,60.61c-0.27,0-0.5-0.1-0.69-0.29s-0.29-0.42-0.29-0.69v-23.4c0-0.27,0.1-0.5,0.29-0.69
				c0.19-0.19,0.42-0.29,0.69-0.29H16c2.32,0,4.21,0.28,5.69,0.85c1.47,0.57,2.57,1.41,3.28,2.54c0.71,1.12,1.07,2.53,1.07,4.22
				c0,0.77-0.16,1.47-0.49,2.08c-0.33,0.62-0.71,1.13-1.16,1.54c-0.45,0.41-0.86,0.71-1.25,0.91c0.92,0.39,1.72,1.06,2.41,2.01
				c0.69,0.95,1.03,2.03,1.03,3.24c0,1.81-0.4,3.3-1.2,4.47c-0.8,1.17-1.95,2.05-3.46,2.63c-1.51,0.58-3.36,0.87-5.56,0.87H3.97z
				 M12.05,44.78h3.04c0.53,0,0.91-0.17,1.14-0.52c0.23-0.35,0.34-0.72,0.34-1.11c0-0.39-0.11-0.76-0.34-1.12
				c-0.23-0.36-0.61-0.54-1.14-0.54h-3.04V44.78z M12.05,54.38h3.37c0.6,0,1.03-0.2,1.29-0.6s0.38-0.79,0.38-1.18
				c0-0.43-0.14-0.84-0.42-1.21c-0.28-0.38-0.69-0.56-1.25-0.56h-3.37V54.38z"/>
			<path class="st0" d="M30.56,60.61c-0.27,0-0.5-0.1-0.69-0.29s-0.29-0.42-0.29-0.69v-23.4c0-0.27,0.1-0.5,0.29-0.69
				c0.19-0.19,0.42-0.29,0.69-0.29h18.58c0.27,0,0.49,0.1,0.69,0.29c0.19,0.19,0.29,0.42,0.29,0.69v5.11c0,0.27-0.1,0.5-0.29,0.69
				c-0.19,0.19-0.42,0.29-0.69,0.29H38.27v2.28h10.07c0.27,0,0.49,0.1,0.69,0.29c0.19,0.19,0.29,0.42,0.29,0.69v4.71
				c0,0.27-0.1,0.5-0.29,0.69c-0.19,0.19-0.42,0.29-0.69,0.29H38.27v2.28h11.16c0.27,0,0.49,0.1,0.69,0.29
				c0.19,0.19,0.29,0.42,0.29,0.69v5.11c0,0.27-0.1,0.5-0.29,0.69s-0.42,0.29-0.69,0.29H30.56z"/>
			<path class="st0" d="M54.72,60.61c-0.27,0-0.5-0.1-0.69-0.29s-0.29-0.42-0.29-0.69v-23.4c0-0.27,0.1-0.5,0.29-0.69
				c0.19-0.19,0.42-0.29,0.69-0.29h7.24c0.27,0,0.49,0.1,0.69,0.29c0.19,0.19,0.29,0.42,0.29,0.69v16.95h10.03
				c0.27,0,0.49,0.1,0.69,0.29c0.19,0.19,0.29,0.42,0.29,0.69v5.47c0,0.27-0.1,0.5-0.29,0.69s-0.42,0.29-0.69,0.29H54.72z"/>
			<path class="st0" d="M77.39,60.61c-0.27,0-0.5-0.1-0.69-0.29c-0.19-0.19-0.29-0.42-0.29-0.69v-23.4c0-0.27,0.1-0.5,0.29-0.69
				c0.19-0.19,0.42-0.29,0.69-0.29h7.24c0.27,0,0.49,0.1,0.69,0.29c0.19,0.19,0.29,0.42,0.29,0.69v16.95h10.03
				c0.27,0,0.49,0.1,0.69,0.29c0.19,0.19,0.29,0.42,0.29,0.69v5.47c0,0.27-0.1,0.5-0.29,0.69s-0.42,0.29-0.69,0.29H77.39z"/>
			<path class="st0" d="M110.64,60.97c-2.32,0-4.37-0.35-6.14-1.05c-1.77-0.7-3.16-1.79-4.15-3.26c-0.99-1.47-1.49-3.34-1.49-5.61
				V36.24c0-0.27,0.1-0.5,0.29-0.69c0.19-0.19,0.42-0.29,0.69-0.29h7.1c0.27,0,0.49,0.1,0.69,0.29c0.19,0.19,0.29,0.42,0.29,0.69
				v14.67c0,0.89,0.22,1.58,0.67,2.06c0.45,0.48,1.12,0.72,2.01,0.72c0.89,0,1.56-0.24,2.01-0.72c0.45-0.48,0.67-1.17,0.67-2.06
				V36.24c0-0.27,0.1-0.5,0.29-0.69c0.19-0.19,0.42-0.29,0.69-0.29h7.1c0.27,0,0.5,0.1,0.69,0.29c0.19,0.19,0.29,0.42,0.29,0.69
				v14.81c0,2.27-0.5,4.14-1.48,5.61c-0.99,1.47-2.37,2.56-4.13,3.26C114.96,60.62,112.94,60.97,110.64,60.97z"/>
			<path class="st0" d="M136.69,60.97c-2.68,0-4.89-0.36-6.63-1.09c-1.74-0.72-3.04-1.68-3.91-2.86c-0.87-1.18-1.33-2.44-1.38-3.77
				c0-0.22,0.08-0.4,0.24-0.56c0.16-0.16,0.34-0.24,0.56-0.24h6.88c0.38,0,0.68,0.05,0.89,0.16c0.21,0.11,0.43,0.26,0.67,0.45
				c0.24,0.17,0.49,0.32,0.74,0.45c0.25,0.13,0.54,0.23,0.87,0.29c0.33,0.06,0.68,0.09,1.07,0.09c0.82,0,1.48-0.09,1.97-0.27
				c0.5-0.18,0.74-0.43,0.74-0.74c0-0.29-0.14-0.53-0.42-0.72s-0.75-0.37-1.43-0.53c-0.68-0.16-1.62-0.31-2.83-0.45
				c-1.91-0.27-3.56-0.71-4.96-1.34s-2.48-1.49-3.24-2.59c-0.76-1.1-1.14-2.44-1.14-4.04c0-1.64,0.46-3.09,1.39-4.35
				s2.22-2.23,3.88-2.93c1.65-0.7,3.58-1.05,5.78-1.05c1.81,0,3.42,0.24,4.82,0.71s2.58,1.09,3.55,1.85
				c0.96,0.76,1.7,1.58,2.21,2.45s0.77,1.7,0.8,2.5c0,0.22-0.08,0.41-0.23,0.56c-0.16,0.16-0.33,0.24-0.53,0.24h-7.25
				c-0.34,0-0.61-0.05-0.81-0.14c-0.21-0.1-0.42-0.24-0.63-0.43c-0.12-0.12-0.35-0.26-0.67-0.42c-0.33-0.16-0.74-0.24-1.25-0.24
				c-0.6,0-1.04,0.09-1.32,0.27c-0.28,0.18-0.42,0.43-0.42,0.74c0,0.22,0.11,0.42,0.32,0.62c0.22,0.19,0.62,0.36,1.2,0.51
				c0.58,0.14,1.41,0.29,2.5,0.43c2.41,0.29,4.35,0.75,5.81,1.39c1.46,0.64,2.52,1.49,3.19,2.55c0.66,1.06,1,2.38,1,3.95
				c0,1.76-0.53,3.28-1.58,4.56c-1.05,1.28-2.48,2.26-4.29,2.95C141.03,60.63,138.98,60.97,136.69,60.97z"/>
		</g>
	</g>
</g>
</svg>
