<?xml version="1.0" encoding="utf-8"?>
<!-- Generator: Adobe Illustrator 24.3.0, SVG Export Plug-In . SVG Version: 6.00 Build 0)  -->
<svg version="1.1" id="Capa_1" xmlns="http://www.w3.org/2000/svg" xmlns:xlink="http://www.w3.org/1999/xlink" x="0px" y="0px"
	 viewBox="0 0 39 26" style="enable-background:new 0 0 39 26;" xml:space="preserve">
<style type="text/css">
	.st0{fill:#121629;}
</style>
<g>
	<path class="st0" d="M8.97,6.71C8.93,7.5,8.99,8.29,8.76,9.06c-0.34,1.13-1.04,2.01-1.81,2.85c-0.77,0.84-1.54,1.68-1.98,2.75
		c-0.72,1.76-0.43,3.49,0.09,5.22c0.1-0.64,0.26-1.26,0.58-1.83c0.8-1.39,1.75-1.85,3.33-1.62c0.28,0.04,0.58,0.07,0.86,0.04
		c0.62-0.07,0.9-0.52,0.63-1.08c-0.16-0.34-0.14-0.5,0.21-0.66c0.46-0.21,0.23-0.54,0.2-0.89c-0.02-0.22,0.59-0.43,0.1-0.83
		c-0.24-0.19-0.24-0.48,0.04-0.69c0.09-0.07,0.17-0.14,0.24-0.21c0.42-0.4,0.39-0.61-0.12-0.9c-0.19-0.11-0.38-0.2-0.56-0.32
		c-0.66-0.46-1.08-1.03-1.01-1.9C9.63,8.18,9.37,7.43,8.97,6.71z"/>
	<path class="st0" d="M6.76,6.25C7.3,7.49,7.1,8.69,6.32,9.83c-0.57,0.84-1.23,1.63-1.83,2.45c-1.64,2.22-1.95,4.59-0.87,6.77
		c-0.1-0.81-0.28-1.55-0.29-2.31c0-1.49,0.61-2.8,1.62-4c0.5-0.59,1.02-1.18,1.56-1.75C8,9.41,8.13,7.79,6.92,6.11
		C6.79,6.1,6.73,6.14,6.76,6.25z"/>
	<path class="st0" d="M2.9,6.4L2.63,6.71C2.27,7.12,2.31,7.75,2.73,8.12l0.31,0.27l0.27-0.31c0.36-0.42,0.32-1.05-0.09-1.41L2.9,6.4
		z"/>
	<path class="st0" d="M5.22,8.42L4.91,8.15C4.49,7.79,3.86,7.83,3.5,8.25L3.23,8.56l0.31,0.27c0.42,0.36,1.05,0.32,1.41-0.09
		L5.22,8.42z"/>
	<path class="st0" d="M0.88,8.42l0.31-0.27C1.6,7.79,2.24,7.83,2.6,8.25l0.27,0.31L2.56,8.83C2.14,9.19,1.51,9.15,1.15,8.73
		L0.88,8.42z"/>
	<path class="st0" d="M3.17,10.63l0.27-0.31C3.81,9.9,3.76,9.27,3.35,8.91L3.04,8.64L2.77,8.95C2.41,9.36,2.45,10,2.86,10.36
		L3.17,10.63z"/>
	<g>
		<g>
			<path class="st0" d="M15.19,15.16c-0.04,0-0.08-0.02-0.11-0.05c-0.03-0.03-0.05-0.07-0.05-0.11v-3.7c0-0.04,0.02-0.08,0.05-0.11
				c0.03-0.03,0.07-0.05,0.11-0.05h1.9c0.37,0,0.67,0.04,0.9,0.13c0.23,0.09,0.4,0.22,0.52,0.4c0.11,0.18,0.17,0.4,0.17,0.67
				c0,0.12-0.03,0.23-0.08,0.33c-0.05,0.1-0.11,0.18-0.18,0.24c-0.07,0.06-0.14,0.11-0.2,0.14c0.14,0.06,0.27,0.17,0.38,0.32
				c0.11,0.15,0.16,0.32,0.16,0.51c0,0.29-0.06,0.52-0.19,0.71c-0.13,0.19-0.31,0.32-0.55,0.42s-0.53,0.14-0.88,0.14H15.19z
				 M16.47,12.66h0.48c0.08,0,0.14-0.03,0.18-0.08c0.04-0.06,0.05-0.11,0.05-0.17s-0.02-0.12-0.05-0.18
				c-0.04-0.06-0.1-0.09-0.18-0.09h-0.48V12.66z M16.47,14.18H17c0.1,0,0.16-0.03,0.2-0.09c0.04-0.06,0.06-0.12,0.06-0.19
				c0-0.07-0.02-0.13-0.06-0.19c-0.04-0.06-0.11-0.09-0.2-0.09h-0.53V14.18z"/>
			<path class="st0" d="M19.4,15.16c-0.04,0-0.08-0.02-0.11-0.05c-0.03-0.03-0.05-0.07-0.05-0.11v-3.7c0-0.04,0.02-0.08,0.05-0.11
				c0.03-0.03,0.07-0.05,0.11-0.05h2.94c0.04,0,0.08,0.02,0.11,0.05c0.03,0.03,0.05,0.07,0.05,0.11v0.81c0,0.04-0.02,0.08-0.05,0.11
				c-0.03,0.03-0.07,0.05-0.11,0.05h-1.72v0.36h1.59c0.04,0,0.08,0.02,0.11,0.05c0.03,0.03,0.05,0.07,0.05,0.11v0.74
				c0,0.04-0.02,0.08-0.05,0.11c-0.03,0.03-0.07,0.05-0.11,0.05h-1.59v0.36h1.76c0.04,0,0.08,0.01,0.11,0.05
				c0.03,0.03,0.05,0.07,0.05,0.11v0.81c0,0.04-0.02,0.08-0.05,0.11s-0.07,0.05-0.11,0.05H19.4z"/>
			<path class="st0" d="M23.22,15.16c-0.04,0-0.08-0.02-0.11-0.05c-0.03-0.03-0.05-0.07-0.05-0.11v-3.7c0-0.04,0.02-0.08,0.05-0.11
				c0.03-0.03,0.07-0.05,0.11-0.05h1.14c0.04,0,0.08,0.02,0.11,0.05c0.03,0.03,0.05,0.07,0.05,0.11v2.68h1.59
				c0.04,0,0.08,0.02,0.11,0.05s0.05,0.07,0.05,0.11v0.87c0,0.04-0.02,0.08-0.05,0.11s-0.07,0.05-0.11,0.05H23.22z"/>
			<path class="st0" d="M26.8,15.16c-0.04,0-0.08-0.02-0.11-0.05c-0.03-0.03-0.05-0.07-0.05-0.11v-3.7c0-0.04,0.02-0.08,0.05-0.11
				c0.03-0.03,0.07-0.05,0.11-0.05h1.14c0.04,0,0.08,0.02,0.11,0.05c0.03,0.03,0.05,0.07,0.05,0.11v2.68h1.59
				c0.04,0,0.08,0.02,0.11,0.05s0.05,0.07,0.05,0.11v0.87c0,0.04-0.02,0.08-0.05,0.11s-0.07,0.05-0.11,0.05H26.8z"/>
			<path class="st0" d="M32.06,15.22c-0.37,0-0.69-0.06-0.97-0.17c-0.28-0.11-0.5-0.28-0.66-0.52c-0.16-0.23-0.24-0.53-0.24-0.89
				v-2.34c0-0.04,0.02-0.08,0.05-0.11c0.03-0.03,0.07-0.05,0.11-0.05h1.12c0.04,0,0.08,0.02,0.11,0.05
				c0.03,0.03,0.05,0.07,0.05,0.11v2.32c0,0.14,0.04,0.25,0.11,0.33c0.07,0.08,0.18,0.11,0.32,0.11c0.14,0,0.25-0.04,0.32-0.11
				c0.07-0.08,0.11-0.19,0.11-0.33v-2.32c0-0.04,0.01-0.08,0.05-0.11c0.03-0.03,0.07-0.05,0.11-0.05h1.12
				c0.04,0,0.08,0.02,0.11,0.05c0.03,0.03,0.05,0.07,0.05,0.11v2.34c0,0.36-0.08,0.66-0.24,0.89s-0.37,0.4-0.65,0.52
				C32.74,15.17,32.42,15.22,32.06,15.22z"/>
			<path class="st0" d="M36.17,15.22c-0.42,0-0.77-0.06-1.05-0.17c-0.28-0.12-0.48-0.27-0.62-0.45c-0.14-0.19-0.21-0.39-0.22-0.6
				c0-0.03,0.01-0.06,0.04-0.09c0.02-0.02,0.05-0.04,0.09-0.04h1.09c0.06,0,0.11,0.01,0.14,0.03c0.03,0.02,0.07,0.04,0.11,0.07
				c0.04,0.03,0.08,0.05,0.12,0.07c0.04,0.02,0.09,0.04,0.14,0.05c0.05,0.01,0.11,0.01,0.17,0.01c0.13,0,0.23-0.01,0.31-0.04
				c0.08-0.03,0.12-0.07,0.12-0.12c0-0.05-0.02-0.08-0.07-0.11s-0.12-0.06-0.23-0.08c-0.11-0.02-0.26-0.05-0.45-0.07
				c-0.3-0.04-0.56-0.11-0.78-0.21c-0.22-0.1-0.39-0.24-0.51-0.41c-0.12-0.17-0.18-0.39-0.18-0.64c0-0.26,0.07-0.49,0.22-0.69
				c0.15-0.2,0.35-0.35,0.61-0.46c0.26-0.11,0.57-0.17,0.91-0.17c0.29,0,0.54,0.04,0.76,0.11c0.22,0.07,0.41,0.17,0.56,0.29
				c0.15,0.12,0.27,0.25,0.35,0.39c0.08,0.14,0.12,0.27,0.13,0.4c0,0.03-0.01,0.06-0.04,0.09c-0.02,0.02-0.05,0.04-0.08,0.04h-1.14
				c-0.05,0-0.1-0.01-0.13-0.02s-0.07-0.04-0.1-0.07c-0.02-0.02-0.05-0.04-0.11-0.07c-0.05-0.02-0.12-0.04-0.2-0.04
				c-0.09,0-0.17,0.01-0.21,0.04s-0.07,0.07-0.07,0.12c0,0.03,0.02,0.07,0.05,0.1c0.03,0.03,0.1,0.06,0.19,0.08s0.22,0.05,0.4,0.07
				c0.38,0.05,0.69,0.12,0.92,0.22c0.23,0.1,0.4,0.24,0.5,0.4c0.1,0.17,0.16,0.38,0.16,0.62c0,0.28-0.08,0.52-0.25,0.72
				s-0.39,0.36-0.68,0.47C36.86,15.17,36.54,15.22,36.17,15.22z"/>
		</g>
	</g>
</g>
</svg>
